<svg width="38" height="38" viewBox="0 0 38 38" fill="none" xmlns="http://www.w3.org/2000/svg">
<path d="M6.33331 17.4166V30.0833C6.33331 30.9231 6.66694 31.7286 7.26081 32.3225C7.85467 32.9163 8.66013 33.25 9.49998 33.25H28.5C29.3398 33.25 30.1453 32.9163 30.7392 32.3225C31.333 31.7286 31.6666 30.9231 31.6666 30.0833V17.4166H6.33331Z" stroke="#BB2649" stroke-width="2" stroke-linecap="round" stroke-linejoin="round"/>
<path d="M6.33331 17.4167L4.93997 12.8726C4.81783 12.4744 4.77542 12.056 4.81519 11.6415C4.85496 11.2269 4.97611 10.8242 5.17172 10.4565C5.36733 10.0888 5.63355 9.76335 5.95514 9.4987C6.27672 9.23405 6.64735 9.03543 7.04581 8.91422L25.2225 3.37256C26.0245 3.12522 26.892 3.20642 27.6342 3.59831C28.3764 3.9902 28.9327 4.66073 29.1808 5.46256L30.5583 10.0067L6.33331 17.4326V17.4167Z" stroke="#BB2649" stroke-width="2" stroke-linecap="round" stroke-linejoin="round"/>
<path d="M10.45 7.90088L15.8017 14.5509" stroke="#BB2649" stroke-width="2" stroke-linecap="round" stroke-linejoin="round"/>
<path d="M18.7783 5.35168L24.13 12.0017" stroke="#BB2649" stroke-width="2" stroke-linecap="round" stroke-linejoin="round"/>
</svg>
